# xmcd
# 
# Track frame offsets:
#     150
#     12979
#     28200
#     39889
#     53689
#     68844
#     83895
#     98988
#     113913
#     127861
#     143295
#     154905
#     167570
#     182029
# 
# Disc length: 2639
# 
# Revision: 1
# Processed by: cddbd v1.5.2PL0 Copyright (c) Steve Scherf et al.
# Submitted via: BonkEnc v1.0.8
# 
DISCID=aa0a4d0e
DTITLE=Various Artist - 111
DYEAR=0
DGENRE=Country
TTITLE0=所有歌星 - 01早安太陽-葉佳修
TTITLE1=所有歌星 - 02我願-蘇文良
TTITLE2=所有歌星 - 03出賽曲-蔡琴
TTITLE3=所有歌星 - 04神話-羅吉鎮•李碧華
TTITLE4=所有歌星 - 05盼-潘安邦
TTITLE5=所有歌星 - 06四季歌-陳淑樺
TTITLE6=所有歌星 - 07遠揚的夢舟-蔡琴
TTITLE7=所有歌星 - 08陽光和小雨-潘安邦
TTITLE8=所有歌星 - 09再愛我一次-蔡琴
TTITLE9=所有歌星 - 10小雨滴-王瑩玲
TTITLE10=所有歌星 - 11生命來的巧-旅行者
TTITLE11=所有歌星 - 12花雨傘-銀霞
TTITLE12=所有歌星 - 13結-銀霞
TTITLE13=所有歌星 - 14小白菜-蔡琴
EXTD=
EXTT0=
EXTT1=
EXTT2=
EXTT3=
EXTT4=
EXTT5=
EXTT6=
EXTT7=
EXTT8=
EXTT9=
EXTT10=
EXTT11=
EXTT12=
EXTT13=
PLAYORDER=
